<svg width="75" height="75" viewBox="0 0 142 142" fill="none" xmlns="http://www.w3.org/2000/svg">
<circle cx="71" cy="71" r="71" fill="#94D2BD"/>
<path d="M86.0022 56.0059C89.9799 56.0059 93.7946 54.4252 96.6072 51.6116C99.4199 48.798 101 44.982 101 41.0029C101 37.0239 99.4199 33.2079 96.6072 30.3943C93.7946 27.5807 89.9799 26 86.0022 26H56.0066C52.0313 26 48.2187 27.5797 45.4078 30.3917C42.5968 33.2036 41.0176 37.0174 41.0176 40.9941C41.0176 44.9708 42.5968 48.7847 45.4078 51.5966C48.2187 54.4085 52.0313 55.9883 56.0066 55.9883C52.0289 55.9883 48.2142 57.5689 45.4015 60.3825C42.5889 63.1961 41.0088 67.0122 41.0088 70.9912C41.0088 74.9702 42.5889 78.7863 45.4015 81.5999C48.2142 84.4135 52.0289 85.9941 56.0066 85.9941C53.0403 85.9924 50.1401 86.8706 47.6728 88.5177C45.2054 90.1648 43.2818 92.5068 42.145 95.2476C41.0083 97.9883 40.7095 101.005 41.2865 103.915C41.8635 106.826 43.2903 109.5 45.3866 111.6C47.4828 113.699 50.1543 115.129 53.0633 115.71C55.9722 116.291 58.9879 115.995 61.7291 114.861C64.4703 113.727 66.8137 111.806 68.4631 109.34C70.1126 106.873 70.9939 103.973 70.9956 101.006V56.0059H86.0022ZM86.0022 56.0059C83.0377 56.0059 80.1397 56.8853 77.6747 58.5328C75.2098 60.1804 73.2886 62.5222 72.1542 65.262C71.0197 68.0018 70.7228 71.0166 71.3012 73.9252C71.8795 76.8338 73.3071 79.5055 75.4034 81.6025C77.4996 83.6994 80.1704 85.1275 83.078 85.706C85.9856 86.2846 88.9994 85.9876 91.7382 84.8528C94.4771 83.7179 96.8181 81.7961 98.4651 79.3303C100.112 76.8645 100.991 73.9656 100.991 71C100.991 67.0234 99.4114 63.2099 96.6005 60.3981C93.7896 57.5862 89.9774 56.0063 86.0022 56.0059Z" fill="#001219"/>
</svg>
