<svg width="75" height="75" viewBox="0 0 142 142" fill="none" xmlns="http://www.w3.org/2000/svg">
<circle cx="71" cy="71" r="71" fill="#94D2BD"/>
<path d="M62.3134 49.726H44.9688C36.2188 47.4397 16.4241 48.0347 16.4241 66.0264C16.4241 72.5845 19.7053 77.1919 24.0803 79.3213C18.5897 84.3341 15.9866 86.6989 15.9866 90.0466C15.9866 92.444 16.9644 94.654 19.9 95.8898C16.7784 98.8125 15 100.935 15 104.924C15 111.922 21.1359 116 37.2316 116C52.7081 116 61.6856 110.242 61.6856 100.05C61.6856 87.2656 51.8069 87.7363 28.5166 86.3197L31.4544 81.6228C37.4197 83.2749 57.42 83.8023 57.42 66.8263C57.42 62.7506 55.7291 59.9151 54.1387 57.8751L62.3222 57.2561L62.3134 49.726ZM48.4403 102.448C48.4403 109.435 25.4956 109.444 25.4956 102.978C25.4956 101.203 26.6484 99.7083 27.8078 98.2829C44.8069 99.438 48.4403 99.0174 48.4403 102.448ZM37.3256 73.1163C25.7756 73.1163 26.2875 57.607 37.5881 57.607C48.425 57.607 48.705 73.1163 37.3256 73.1163ZM66.485 95.0224V88.0262C72.3366 87.2285 72.4438 87.5903 72.4438 85.6288V59.5816C72.4438 57.7291 71.9953 57.9732 66.485 56.0378L67.4628 48.8629H85.875V85.6331C85.875 87.052 85.9625 87.2285 87.2991 87.4072L91.8337 88.0262V95.0224H66.485ZM77.9584 41.7752C72.89 41.7752 69.9544 38.8481 69.9544 33.796C69.9544 28.744 72.89 26 77.9584 26C83.1166 26 86.0522 28.7505 86.0522 33.796C86.0522 38.8416 83.1166 41.7752 77.9584 41.7752ZM127 91.5875C123.174 93.4466 117.572 95.1313 112.501 95.1313C101.918 95.1313 97.9172 90.8813 97.9172 80.8644V57.6506C97.9172 56.4693 98.1469 56.7657 90.9806 56.7657V48.8781C98.8075 47.9911 101.918 44.0833 102.896 34.4346H111.346C111.346 48.7822 111.053 47.9061 112.059 47.9061H124.594V56.7657H111.346V77.9395C111.346 79.4477 110.27 89.1443 124.596 83.7893L127 91.5875Z" fill="#001219"/>
</svg>
