<svg width="75" height="75" viewBox="0 0 142 142" fill="none" xmlns="http://www.w3.org/2000/svg">
<circle cx="71" cy="71" r="71" fill="#94D2BD"/>
<path d="M55.7718 98.4679C55.7718 98.8401 55.3452 99.1378 54.8073 99.1378C54.1952 99.1937 53.7685 98.8959 53.7685 98.4679C53.7685 98.0957 54.1952 97.7979 54.7331 97.7979C55.2895 97.7421 55.7718 98.0398 55.7718 98.4679ZM50.0032 97.6304C49.8734 98.0026 50.2444 98.4306 50.8008 98.5423C51.2831 98.7284 51.8395 98.5423 51.9508 98.1701C52.0621 97.7979 51.7097 97.3699 51.1532 97.2024C50.671 97.0721 50.1331 97.2582 50.0032 97.6304ZM58.2016 97.314C57.6637 97.4443 57.2927 97.7979 57.3484 98.2259C57.404 98.5981 57.8863 98.8401 58.4427 98.7098C58.9806 98.5795 59.3516 98.2259 59.296 97.8537C59.2403 97.5001 58.7395 97.2582 58.2016 97.314ZM70.4065 26C44.6798 26 25 45.5965 25 71.4087C25 92.0474 37.9468 109.708 56.4395 115.924C58.8137 116.352 59.6484 114.882 59.6484 113.672C59.6484 112.519 59.5927 106.154 59.5927 102.246C59.5927 102.246 46.6089 105.037 43.8823 96.6999C43.8823 96.6999 41.7677 91.2843 38.7258 89.8886C38.7258 89.8886 34.4782 86.9668 39.0226 87.0226C39.0226 87.0226 43.6411 87.3948 46.1823 91.8241C50.2444 99.0076 57.0516 96.9418 59.704 95.7136C60.1306 92.7359 61.3363 90.6702 62.6718 89.4419C52.3032 88.2881 41.8419 86.7807 41.8419 68.8778C41.8419 63.76 43.2516 61.1918 46.2194 57.9164C45.7371 56.7067 44.1605 51.7192 46.7016 45.2801C50.5782 44.0704 59.5 50.3048 59.5 50.3048C63.2097 49.2627 67.1976 48.723 71.1484 48.723C75.0992 48.723 79.0871 49.2627 82.7968 50.3048C82.7968 50.3048 91.7186 44.0518 95.5952 45.2801C98.1363 51.7378 96.5597 56.7067 96.0774 57.9164C99.0452 61.2104 100.863 63.7786 100.863 68.8778C100.863 86.8365 89.9379 88.2695 79.5694 89.4419C81.2758 90.9121 82.7226 93.7037 82.7226 98.077C82.7226 104.349 82.6669 112.109 82.6669 113.635C82.6669 114.845 83.5202 116.315 85.8758 115.887C104.424 109.708 117 92.0474 117 71.4087C117 45.5965 96.1331 26 70.4065 26ZM43.029 90.1864C42.7879 90.3725 42.8435 90.8005 43.1589 91.1541C43.4556 91.4518 43.8823 91.5821 44.1234 91.3402C44.3645 91.1541 44.3089 90.726 43.9935 90.3725C43.6968 90.0747 43.2702 89.9444 43.029 90.1864ZM41.0258 88.6789C40.896 88.9209 41.0815 89.2186 41.4524 89.4047C41.7492 89.5908 42.1202 89.535 42.25 89.2745C42.3798 89.0325 42.1944 88.7348 41.8234 88.5487C41.4524 88.437 41.1556 88.4928 41.0258 88.6789ZM47.0355 95.3041C46.7387 95.5461 46.85 96.1044 47.2766 96.458C47.7032 96.886 48.2411 96.9418 48.4823 96.6441C48.7234 96.4021 48.6121 95.8438 48.2411 95.4902C47.8331 95.0622 47.2766 95.0064 47.0355 95.3041ZM44.921 92.5685C44.6242 92.7546 44.6242 93.2384 44.921 93.6665C45.2177 94.0945 45.7185 94.2806 45.9597 94.0945C46.2565 93.8525 46.2565 93.3687 45.9597 92.9407C45.7 92.5126 45.2177 92.3265 44.921 92.5685Z" fill="#001219"/>
</svg>

