<svg width="75" height="75" viewBox="0 0 142 142" fill="none" xmlns="http://www.w3.org/2000/svg">
<circle cx="71" cy="71" r="71" fill="#94D2BD"/>
<path d="M86.0438 81.0012C87.7572 79.8235 90.1351 78.804 90.1351 78.804C90.1351 78.804 83.3687 80.0344 76.6373 80.5969C68.4022 81.2825 59.5552 81.4231 55.1143 80.8254C44.6063 79.4192 60.884 75.5345 60.884 75.5345C60.884 75.5345 54.5723 75.1126 46.7918 78.8743C37.6126 83.3391 69.5212 85.3781 86.0438 81.0012ZM71.1123 75.3587C67.7903 67.853 56.5829 61.2613 71.1123 49.7302C89.2364 35.3514 79.9418 26 79.9418 26C83.7009 40.8533 66.7238 45.3533 60.5868 54.5817C56.4081 60.8921 62.6325 67.6596 71.1123 75.3587ZM91.1491 44.3865C91.1666 44.3865 60.5169 52.0856 75.1511 69.0307C79.4697 74.0228 74.0147 78.5227 74.0147 78.5227C74.0147 78.5227 84.9772 72.8275 79.9418 65.7085C75.2385 59.064 71.6368 55.7594 91.1491 44.3865ZM90.0826 91.9347C89.9871 92.1022 89.8694 92.2559 89.7329 92.3917C112.165 86.468 103.913 71.4916 93.1948 75.2884C92.6159 75.5023 92.1157 75.8886 91.7611 76.3958C92.3869 76.1681 93.0301 75.9917 93.6843 75.8685C99.1044 74.7259 106.885 83.1633 90.0826 91.9347ZM98.3281 102.886C98.3281 102.886 100.863 104.977 95.5482 106.612C85.4248 109.688 53.4463 110.62 44.5643 106.735C41.3647 105.347 47.3618 103.395 49.2501 102.991C51.2083 102.569 52.3448 102.64 52.3448 102.64C48.7955 100.126 29.3881 107.579 42.4837 109.706C78.1934 115.542 107.595 107.087 98.3281 102.886ZM59.2405 95.6085C45.4805 99.4756 67.6154 107.456 85.1346 99.915C83.426 99.2477 81.7766 98.4362 80.204 97.4893C72.3886 98.9834 68.7694 99.0889 61.6708 98.2803C55.8136 97.6123 59.2405 95.6085 59.2405 95.6085ZM90.6771 112.694C76.917 115.296 59.9399 114.997 49.8865 113.327C49.8865 113.309 51.9496 115.032 62.545 115.718C78.6654 116.755 103.423 115.137 104 107.474C104 107.474 102.881 110.374 90.6771 112.694ZM83.054 88.05C72.7033 90.0538 66.7063 90.0011 59.1356 89.2101C53.2784 88.5949 57.1075 85.7473 57.1075 85.7473C41.9312 90.8097 65.5348 96.5401 86.7431 90.2999C85.3724 89.8133 84.1165 89.0473 83.054 88.05Z" fill="#001219"/>
</svg>

