<svg width="1440" height="1024" viewBox="0 0 1440 1024" fill="none" xmlns="http://www.w3.org/2000/svg">
<rect width="1440" height="1024" fill="white"/>
<rect width="1440" height="1024" fill="url(#paint0_linear)"/>
<line x1="162" y1="826" x2="1278" y2="826" stroke="#FE8163" stroke-width="10"/>
<circle cx="1044" cy="660" r="71" fill="#94D2BD"/>
<path d="M1059.04 670.001C1060.76 668.824 1063.14 667.804 1063.14 667.804C1063.14 667.804 1056.37 669.034 1049.64 669.597C1041.4 670.282 1032.56 670.423 1028.11 669.825C1017.61 668.419 1033.88 664.535 1033.88 664.535C1033.88 664.535 1027.57 664.113 1019.79 667.874C1010.61 672.339 1042.52 674.378 1059.04 670.001ZM1044.11 664.359C1040.79 656.853 1029.58 650.261 1044.11 638.73C1062.24 624.351 1052.94 615 1052.94 615C1056.7 629.853 1039.72 634.353 1033.59 643.582C1029.41 649.892 1035.63 656.66 1044.11 664.359ZM1064.15 633.386C1064.17 633.386 1033.52 641.086 1048.15 658.031C1052.47 663.023 1047.01 667.523 1047.01 667.523C1047.01 667.523 1057.98 661.828 1052.94 654.708C1048.24 648.064 1044.64 644.759 1064.15 633.386ZM1063.08 680.935C1062.99 681.102 1062.87 681.256 1062.73 681.392C1085.17 675.468 1076.91 660.492 1066.19 664.288C1065.62 664.502 1065.12 664.889 1064.76 665.396C1065.39 665.168 1066.03 664.992 1066.68 664.868C1072.1 663.726 1079.88 672.163 1063.08 680.935ZM1071.33 691.886C1071.33 691.886 1073.86 693.977 1068.55 695.612C1058.42 698.688 1026.45 699.62 1017.56 695.735C1014.36 694.347 1020.36 692.395 1022.25 691.991C1024.21 691.569 1025.34 691.64 1025.34 691.64C1021.8 689.126 1002.39 696.579 1015.48 698.706C1051.19 704.542 1080.59 696.087 1071.33 691.886ZM1032.24 684.608C1018.48 688.476 1040.62 696.456 1058.13 688.915C1056.43 688.248 1054.78 687.436 1053.2 686.489C1045.39 687.983 1041.77 688.089 1034.67 687.28C1028.81 686.612 1032.24 684.608 1032.24 684.608ZM1063.68 701.694C1049.92 704.296 1032.94 703.997 1022.89 702.327C1022.89 702.309 1024.95 704.032 1035.55 704.718C1051.67 705.755 1076.42 704.137 1077 696.474C1077 696.474 1075.88 699.374 1063.68 701.694ZM1056.05 677.05C1045.7 679.054 1039.71 679.001 1032.14 678.21C1026.28 677.595 1030.11 674.747 1030.11 674.747C1014.93 679.81 1038.53 685.54 1059.74 679.3C1058.37 678.813 1057.12 678.047 1056.05 677.05Z" fill="#001219"/>
<circle cx="720" cy="660" r="71" fill="#94D2BD"/>
<path d="M704.772 687.468C704.772 687.84 704.345 688.138 703.807 688.138C703.195 688.194 702.769 687.896 702.769 687.468C702.769 687.096 703.195 686.798 703.733 686.798C704.29 686.742 704.772 687.04 704.772 687.468ZM699.003 686.63C698.873 687.003 699.244 687.431 699.801 687.542C700.283 687.728 700.84 687.542 700.951 687.17C701.062 686.798 700.71 686.37 700.153 686.202C699.671 686.072 699.133 686.258 699.003 686.63ZM707.202 686.314C706.664 686.444 706.293 686.798 706.348 687.226C706.404 687.598 706.886 687.84 707.443 687.71C707.981 687.58 708.352 687.226 708.296 686.854C708.24 686.5 707.74 686.258 707.202 686.314ZM719.406 615C693.68 615 674 634.596 674 660.409C674 681.047 686.947 698.708 705.44 704.924C707.814 705.352 708.648 703.882 708.648 702.672C708.648 701.519 708.593 695.154 708.593 691.246C708.593 691.246 695.609 694.037 692.882 685.7C692.882 685.7 690.768 680.284 687.726 678.889C687.726 678.889 683.478 675.967 688.023 676.023C688.023 676.023 692.641 676.395 695.182 680.824C699.244 688.008 706.052 685.942 708.704 684.714C709.131 681.736 710.336 679.67 711.672 678.442C701.303 677.288 690.842 675.781 690.842 657.878C690.842 652.76 692.252 650.192 695.219 646.916C694.737 645.707 693.16 640.719 695.702 634.28C699.578 633.07 708.5 639.305 708.5 639.305C712.21 638.263 716.198 637.723 720.148 637.723C724.099 637.723 728.087 638.263 731.797 639.305C731.797 639.305 740.719 633.052 744.595 634.28C747.136 640.738 745.56 645.707 745.077 646.916C748.045 650.21 749.863 652.779 749.863 657.878C749.863 675.837 738.938 677.27 728.569 678.442C730.276 679.912 731.723 682.704 731.723 687.077C731.723 693.349 731.667 701.109 731.667 702.635C731.667 703.845 732.52 705.315 734.876 704.887C753.424 698.708 766 681.047 766 660.409C766 634.596 745.133 615 719.406 615ZM692.029 679.186C691.788 679.372 691.844 679.8 692.159 680.154C692.456 680.452 692.882 680.582 693.123 680.34C693.365 680.154 693.309 679.726 692.994 679.372C692.697 679.075 692.27 678.944 692.029 679.186ZM690.026 677.679C689.896 677.921 690.081 678.219 690.452 678.405C690.749 678.591 691.12 678.535 691.25 678.274C691.38 678.033 691.194 677.735 690.823 677.549C690.452 677.437 690.156 677.493 690.026 677.679ZM696.035 684.304C695.739 684.546 695.85 685.104 696.277 685.458C696.703 685.886 697.241 685.942 697.482 685.644C697.723 685.402 697.612 684.844 697.241 684.49C696.833 684.062 696.277 684.006 696.035 684.304ZM693.921 681.568C693.624 681.755 693.624 682.238 693.921 682.666C694.218 683.094 694.719 683.281 694.96 683.094C695.256 682.853 695.256 682.369 694.96 681.941C694.7 681.513 694.218 681.327 693.921 681.568Z" fill="#001219"/>
<circle cx="882" cy="660" r="71" fill="#94D2BD"/>
<path d="M878.595 683.041C878.539 683.154 878.482 683.244 878.595 683.041V683.041ZM925.307 666.73C921.536 666.729 917.815 667.595 914.432 669.261C913.326 667.03 912.182 665.08 911.995 663.618C911.77 661.912 911.526 660.899 911.788 658.874C912.051 656.85 913.232 653.981 913.214 653.775C913.195 653.569 912.951 652.537 910.532 652.519C908.113 652.5 906.032 652.987 905.79 653.625C905.363 654.79 905.031 655.987 904.797 657.206C904.365 659.399 899.961 667.236 897.467 671.323C896.642 669.73 895.948 668.324 895.798 667.199C895.573 665.493 895.33 664.48 895.592 662.455C895.855 660.431 897.036 657.562 897.017 657.356C896.998 657.15 896.755 656.118 894.338 656.1C891.921 656.081 889.838 656.568 889.594 657.206C889.35 657.843 889.088 659.343 888.6 660.787C888.113 662.23 882.246 675.279 880.71 678.673C879.923 680.398 879.247 681.785 878.76 682.722C878.685 682.872 878.629 682.966 878.591 683.041C878.647 682.947 878.685 682.854 878.685 682.891C878.272 683.697 878.029 684.147 878.029 684.147V684.166C877.71 684.766 877.354 685.31 877.185 685.31C877.072 685.31 876.829 683.735 877.241 681.579C878.122 677.042 880.204 669.992 880.185 669.748C880.166 669.617 880.579 668.399 878.816 667.742C877.11 667.124 876.491 668.155 876.341 668.155C876.191 668.155 876.079 668.53 876.079 668.53C876.079 668.53 877.972 660.58 872.443 660.58C868.993 660.58 864.193 664.368 861.834 667.799C860.353 668.605 857.147 670.348 853.772 672.205C852.478 672.917 851.147 673.648 849.89 674.342C849.797 674.248 849.722 674.154 849.628 674.061C842.917 666.899 830.527 661.837 831.052 652.219C831.239 648.713 832.458 639.507 854.878 628.333C873.253 619.184 887.944 621.696 890.473 627.283C894.111 635.251 882.619 650.081 863.537 652.219C856.263 653.025 852.44 650.213 851.484 649.163C850.49 648.057 850.34 648 849.965 648.206C849.347 648.544 849.74 649.519 849.965 650.1C850.528 651.581 852.872 654.206 856.863 655.518C860.37 656.662 868.897 657.3 879.208 653.306C890.792 648.844 899.809 636.414 897.165 626.008C894.473 615.434 876.937 611.966 860.357 617.853C850.477 621.359 839.793 626.871 832.108 634.051C822.978 642.601 821.517 650.044 822.117 653.156C824.253 664.199 839.475 671.398 845.566 676.723C845.266 676.892 844.985 677.042 844.723 677.192C841.668 678.71 830.064 684.785 827.159 691.197C823.878 698.471 827.703 703.683 830.214 704.396C838.05 706.57 846.073 702.652 850.383 696.221C854.694 689.791 854.171 681.391 852.183 677.567C852.165 677.51 852.127 677.473 852.108 677.417C852.896 676.948 853.702 676.479 854.508 676.01C856.063 675.092 857.582 674.248 858.913 673.517C858.163 675.542 857.619 677.979 857.338 681.504C857 685.628 858.707 690.972 860.919 693.072C861.894 693.99 863.074 694.009 863.805 694.009C866.392 694.009 867.555 691.872 868.847 689.322C870.441 686.21 871.847 682.591 871.847 682.591C871.847 682.591 870.084 692.378 874.903 692.378C876.664 692.378 878.426 690.109 879.216 688.947V688.966C879.216 688.966 879.253 688.891 879.347 688.741C879.534 688.459 879.628 688.291 879.628 688.291V688.234C880.341 687.016 881.897 684.222 884.239 679.61C887.276 673.648 890.181 666.205 890.181 666.205C890.461 667.841 890.85 669.457 891.343 671.042C891.868 672.823 892.975 674.773 893.856 676.667C893.143 677.642 892.712 678.204 892.712 678.204C892.713 678.218 892.72 678.232 892.731 678.242C892.168 678.991 891.531 679.798 890.875 680.585C888.476 683.435 885.624 686.697 885.249 687.635C884.799 688.741 884.912 689.566 885.774 690.203C886.412 690.691 887.537 690.766 888.716 690.672C890.873 690.522 892.391 689.997 893.123 689.659C894.471 689.176 895.745 688.507 896.908 687.672C899.252 685.947 900.677 683.472 900.546 680.21C900.471 678.41 899.89 676.61 899.177 674.923C899.383 674.623 899.608 674.304 899.815 673.986C903.525 668.567 906.394 662.62 906.394 662.62C906.675 664.257 907.063 665.872 907.557 667.457C908.007 668.976 908.886 670.645 909.692 672.276C906.207 675.107 904.05 678.388 903.3 680.544C901.913 684.537 903 686.337 905.044 686.75C905.963 686.937 907.275 686.506 908.25 686.093C909.698 685.611 911.064 684.909 912.299 684.012C914.642 682.287 916.909 679.869 916.759 676.588C916.703 675.107 916.29 673.626 915.747 672.201C918.69 670.963 922.514 670.288 927.389 670.851C937.829 672.07 939.873 678.594 939.479 681.313C939.085 684.031 936.891 685.55 936.16 686C935.429 686.45 935.204 686.618 935.26 686.956C935.354 687.443 935.691 687.425 936.31 687.312C937.173 687.162 941.783 685.1 941.989 680.056C942.289 673.682 936.16 666.67 925.302 666.726L925.307 666.73ZM844.835 693.859C841.387 697.627 836.55 699.052 834.47 697.852C832.239 696.555 833.12 691.009 837.375 686.993C839.962 684.556 843.298 682.306 845.51 680.919C846.016 680.619 846.748 680.169 847.648 679.625C847.798 679.531 847.873 679.494 847.873 679.494C848.042 679.381 848.229 679.288 848.417 679.175C849.971 684.875 848.473 689.899 844.835 693.855V693.859ZM870.028 676.723C868.828 679.666 866.299 687.166 864.761 686.772C863.449 686.435 862.642 680.716 864.499 675.092C865.436 672.261 867.424 668.886 868.605 667.574C870.497 665.455 872.578 664.78 873.066 665.624C873.722 666.73 870.778 674.886 870.028 676.723ZM890.841 686.66C890.334 686.922 889.866 687.091 889.641 686.96C889.472 686.866 889.847 686.51 889.847 686.51C889.847 686.51 892.453 683.716 893.485 682.441C894.085 681.691 894.778 680.81 895.526 679.835C895.526 679.929 895.545 680.023 895.545 680.135C895.521 683.491 892.298 685.76 890.835 686.66H890.841ZM906.887 683.004C906.512 682.741 906.568 681.86 907.825 679.123C908.312 678.054 909.435 676.254 911.387 674.529C911.608 675.182 911.728 675.865 911.743 676.554C911.725 680.773 908.706 682.347 906.889 683.004H906.887Z" fill="#001219"/>
<circle cx="558" cy="660" r="71" fill="#94D2BD"/>
<path d="M549.313 638.726H531.969C523.219 636.44 503.424 637.035 503.424 655.026C503.424 661.584 506.705 666.192 511.08 668.321C505.59 673.334 502.987 675.699 502.987 679.047C502.987 681.444 503.964 683.654 506.9 684.89C503.778 687.813 502 689.935 502 693.924C502 700.922 508.136 705 524.232 705C539.708 705 548.686 699.242 548.686 689.05C548.686 676.266 538.807 676.736 515.517 675.32L518.454 670.623C524.42 672.275 544.42 672.802 544.42 655.826C544.42 651.751 542.729 648.915 541.139 646.875L549.322 646.256L549.313 638.726ZM535.44 691.448C535.44 698.435 512.496 698.444 512.496 691.978C512.496 690.203 513.648 688.708 514.808 687.283C531.807 688.438 535.44 688.017 535.44 691.448ZM524.326 662.116C512.776 662.116 513.288 646.607 524.588 646.607C535.425 646.607 535.705 662.116 524.326 662.116ZM553.485 684.022V677.026C559.337 676.229 559.444 676.59 559.444 674.629V648.582C559.444 646.729 558.995 646.973 553.485 645.038L554.463 637.863H572.875V674.633C572.875 676.052 572.963 676.229 574.299 676.407L578.834 677.026V684.022H553.485ZM564.958 630.775C559.89 630.775 556.954 627.848 556.954 622.796C556.954 617.744 559.89 615 564.958 615C570.117 615 573.052 617.751 573.052 622.796C573.052 627.842 570.117 630.775 564.958 630.775ZM614 680.587C610.174 682.447 604.572 684.131 599.501 684.131C588.918 684.131 584.917 679.881 584.917 669.864V646.651C584.917 645.469 585.147 645.766 577.981 645.766V637.878C585.807 636.991 588.918 633.083 589.896 623.435H598.346C598.346 637.782 598.053 636.906 599.059 636.906H611.594V645.766H598.346V666.94C598.346 668.448 597.27 678.144 611.596 672.789L614 680.587Z" fill="#001219"/>
<circle cx="395" cy="660" r="71" fill="#94D2BD"/>
<path d="M395.482 705C394.298 705 393.095 704.679 392.052 704.071L381.143 697.553C379.516 696.624 380.312 696.303 380.842 696.124C383.017 695.356 383.459 695.195 385.775 693.856C386.023 693.713 386.341 693.767 386.589 693.927L394.97 698.946C395.27 699.124 395.694 699.124 395.977 698.946L428.635 679.908C428.935 679.73 429.13 679.372 429.13 679.015V640.94C429.13 640.565 428.935 640.226 428.617 640.029L395.977 621.01C395.677 620.831 395.27 620.831 394.97 621.01L362.348 640.047C362.029 640.226 361.835 640.583 361.835 640.958V679.015C361.835 679.372 362.029 679.73 362.348 679.89L371.294 685.105C376.157 687.552 379.127 684.677 379.127 681.766V644.19C379.127 643.655 379.551 643.244 380.082 643.244H384.219C384.732 643.244 385.174 643.655 385.174 644.19V681.783C385.174 688.32 381.638 692.07 375.502 692.07C373.611 692.07 372.125 692.07 367.988 689.999L359.43 685.016C357.308 683.784 356 681.48 356 678.997V640.94C356 638.476 357.308 636.154 359.43 634.922L392.052 615.884C394.121 614.705 396.861 614.705 398.912 615.884L431.57 634.939C433.692 636.172 435 638.476 435 640.958V679.015C435 681.48 433.692 683.784 431.57 685.034L398.912 704.071C397.869 704.679 396.685 705 395.482 705ZM421.845 667.478C421.845 660.353 417.071 658.46 407.046 657.12C396.897 655.763 395.871 655.066 395.871 652.673C395.871 650.691 396.738 648.048 404.252 648.048C410.953 648.048 413.429 649.512 414.454 654.084C414.543 654.513 414.932 654.834 415.374 654.834H419.617C419.882 654.834 420.13 654.727 420.307 654.531C420.484 654.334 420.572 654.066 420.554 653.798C419.9 645.923 414.72 642.262 404.252 642.262C394.934 642.262 389.382 646.226 389.382 652.888C389.382 660.103 394.917 662.103 403.846 662.996C414.543 664.05 415.374 665.639 415.374 667.764C415.374 671.443 412.439 673.015 405.561 673.015C396.915 673.015 395.023 670.818 394.386 666.478C394.315 666.014 393.926 665.675 393.449 665.675H389.223C388.693 665.675 388.286 666.103 388.286 666.621C388.286 672.175 391.274 678.801 405.578 678.801C415.904 678.783 421.845 674.658 421.845 667.478Z" fill="#001219"/>
<circle cx="1044" cy="456" r="71" fill="#94D2BD"/>
<path d="M1077.13 440.166C1076.04 439.804 1074.96 439.462 1073.87 439.141C1074.05 438.398 1074.21 437.655 1074.37 436.911C1076.85 424.939 1075.22 415.316 1069.73 412.143C1064.44 409.109 1055.81 412.263 1047.07 419.856C1046.21 420.6 1045.37 421.383 1044.56 422.167C1044.02 421.644 1043.45 421.122 1042.89 420.62C1033.74 412.504 1024.56 409.089 1019.07 412.283C1013.8 415.337 1012.23 424.396 1014.44 435.726C1014.67 436.851 1014.91 437.956 1015.19 439.081C1013.9 439.442 1012.63 439.844 1011.45 440.266C1000.7 443.982 993 449.848 993 455.915C993 462.182 1001.21 468.47 1012.37 472.287C1013.28 472.588 1014.18 472.889 1015.11 473.15C1014.81 474.356 1014.55 475.541 1014.3 476.766C1012.19 487.915 1013.84 496.754 1019.11 499.787C1024.54 502.921 1033.68 499.707 1042.57 491.933C1043.27 491.31 1043.98 490.667 1044.68 489.984C1045.57 490.848 1046.49 491.672 1047.42 492.475C1056.03 499.868 1064.54 502.861 1069.79 499.828C1075.22 496.694 1076.99 487.192 1074.7 475.621C1074.51 474.737 1074.31 473.833 1074.09 472.909C1074.74 472.729 1075.36 472.528 1075.98 472.327C1087.59 468.49 1096 462.283 1096 455.915C1096 449.828 1088.07 443.922 1077.13 440.166ZM1049.91 423.111C1057.4 416.602 1064.38 414.051 1067.55 415.879C1070.95 417.827 1072.26 425.702 1070.13 436.047C1069.99 436.73 1069.85 437.393 1069.67 438.056C1065.2 437.052 1060.67 436.329 1056.13 435.927C1053.51 432.191 1050.66 428.615 1047.56 425.26C1048.34 424.517 1049.11 423.814 1049.91 423.111ZM1026.64 466.341C1027.66 468.088 1028.71 469.836 1029.81 471.543C1026.68 471.202 1023.56 470.7 1020.48 470.037C1021.37 467.144 1022.47 464.151 1023.76 461.097C1024.68 462.865 1025.63 464.613 1026.64 466.341ZM1020.54 442.174C1023.44 441.532 1026.52 441.009 1029.71 440.608C1028.65 442.275 1027.6 443.982 1026.62 445.71C1025.63 447.417 1024.66 449.165 1023.76 450.933C1022.49 447.94 1021.43 445.007 1020.54 442.174ZM1026.05 456.015C1027.38 453.243 1028.83 450.531 1030.36 447.859C1031.89 445.188 1033.54 442.596 1035.27 440.045C1038.28 439.824 1041.36 439.704 1044.5 439.704C1047.64 439.704 1050.74 439.824 1053.73 440.045C1055.44 442.576 1057.07 445.168 1058.62 447.819C1060.17 450.471 1061.62 453.183 1062.99 455.935C1061.64 458.707 1060.19 461.439 1058.64 464.131C1057.11 466.803 1055.48 469.394 1053.77 471.965C1050.78 472.186 1047.66 472.287 1044.5 472.287C1041.34 472.287 1038.28 472.186 1035.33 472.005C1033.58 469.454 1031.93 466.843 1030.38 464.171C1028.83 461.499 1027.4 458.787 1026.05 456.015ZM1062.38 466.3C1063.41 464.533 1064.38 462.745 1065.32 460.937C1066.61 463.85 1067.74 466.803 1068.72 469.836C1065.6 470.539 1062.44 471.081 1059.27 471.443C1060.35 469.756 1061.38 468.028 1062.38 466.3ZM1065.28 450.933C1064.34 449.165 1063.37 447.397 1062.36 445.67C1061.38 443.962 1060.35 442.275 1059.29 440.608C1062.53 441.009 1065.62 441.552 1068.52 442.215C1067.59 445.188 1066.51 448.08 1065.28 450.933ZM1044.54 428.334C1046.65 430.624 1048.64 433.034 1050.49 435.525C1046.51 435.344 1042.51 435.344 1038.53 435.525C1040.5 432.934 1042.53 430.523 1044.54 428.334ZM1021.2 416.02C1024.58 414.051 1032.09 416.863 1039.99 423.854C1040.5 424.296 1041 424.778 1041.52 425.26C1038.4 428.615 1035.53 432.191 1032.89 435.927C1028.35 436.329 1023.84 437.032 1019.37 438.016C1019.11 436.992 1018.89 435.947 1018.67 434.902C1016.78 425.18 1018.03 417.848 1021.2 416.02ZM1016.28 468.972C1015.43 468.731 1014.61 468.47 1013.78 468.189C1009.5 466.843 1004.63 464.713 1001.11 461.921C999.075 460.515 997.707 458.345 997.325 455.915C997.325 452.239 1003.68 447.538 1012.86 444.344C1014 443.942 1015.17 443.581 1016.34 443.239C1017.7 447.598 1019.35 451.877 1021.26 456.015C1019.33 460.214 1017.66 464.553 1016.28 468.972ZM1039.73 488.659C1036.41 491.692 1032.57 494.102 1028.39 495.75C1026.15 496.814 1023.58 496.915 1021.28 496.011C1018.09 494.163 1016.76 487.072 1018.57 477.53C1018.79 476.405 1019.03 475.28 1019.31 474.175C1023.82 475.139 1028.37 475.802 1032.97 476.144C1035.63 479.9 1038.55 483.496 1041.66 486.871C1041.02 487.493 1040.38 488.096 1039.73 488.659ZM1044.66 483.777C1042.61 481.567 1040.56 479.117 1038.57 476.485C1040.5 476.565 1042.49 476.606 1044.5 476.606C1046.57 476.606 1048.6 476.565 1050.62 476.465C1048.76 479.016 1046.77 481.447 1044.66 483.777ZM1070.95 489.804C1070.77 492.254 1069.57 494.544 1067.63 496.091C1064.44 497.939 1057.62 495.529 1050.25 489.221C1049.41 488.498 1048.56 487.714 1047.7 486.911C1050.78 483.516 1053.61 479.92 1056.19 476.144C1060.79 475.762 1065.38 475.059 1069.91 474.034C1070.11 474.858 1070.29 475.682 1070.45 476.485C1071.44 480.824 1071.6 485.344 1070.95 489.804ZM1074.62 468.209C1074.05 468.39 1073.49 468.57 1072.91 468.731C1071.5 464.352 1069.77 460.073 1067.78 455.915C1069.71 451.817 1071.34 447.598 1072.7 443.279C1073.75 443.581 1074.76 443.902 1075.72 444.223C1085.1 447.438 1091.67 452.218 1091.67 455.875C1091.67 459.812 1084.65 464.894 1074.62 468.209ZM1044.5 465.195C1049.59 465.195 1053.71 461.077 1053.71 455.995C1053.71 450.913 1049.59 446.795 1044.5 446.795C1039.41 446.795 1035.29 450.913 1035.29 455.995C1035.29 461.077 1039.41 465.195 1044.5 465.195Z" fill="#001219"/>
<circle cx="882" cy="456" r="71" fill="#94D2BD"/>
<path d="M897.002 441.006C900.98 441.006 904.795 439.425 907.607 436.612C910.42 433.798 912 429.982 912 426.003C912 422.024 910.42 418.208 907.607 415.394C904.795 412.581 900.98 411 897.002 411H867.007C863.031 411 859.219 412.58 856.408 415.392C853.597 418.204 852.018 422.017 852.018 425.994C852.018 429.971 853.597 433.785 856.408 436.597C859.219 439.409 863.031 440.988 867.007 440.988C863.029 440.988 859.214 442.569 856.402 445.383C853.589 448.196 852.009 452.012 852.009 455.991C852.009 459.97 853.589 463.786 856.402 466.6C859.214 469.413 863.029 470.994 867.007 470.994C864.04 470.992 861.14 471.871 858.673 473.518C856.205 475.165 854.282 477.507 853.145 480.248C852.008 482.988 851.709 486.005 852.286 488.915C852.863 491.826 854.29 494.5 856.387 496.6C858.483 498.699 861.154 500.129 864.063 500.71C866.972 501.291 869.988 500.995 872.729 499.861C875.47 498.727 877.814 496.806 879.463 494.34C881.113 491.873 881.994 488.973 881.996 486.006V441.006H897.002ZM897.002 441.006C894.038 441.006 891.14 441.885 888.675 443.533C886.21 445.18 884.289 447.522 883.154 450.262C882.02 453.002 881.723 456.017 882.301 458.925C882.88 461.834 884.307 464.505 886.403 466.602C888.5 468.699 891.17 470.127 894.078 470.706C896.986 471.285 899.999 470.988 902.738 469.853C905.477 468.718 907.818 466.796 909.465 464.33C911.112 461.865 911.991 458.966 911.991 456C911.991 452.023 910.411 448.21 907.601 445.398C904.79 442.586 900.977 441.006 897.002 441.006Z" fill="#001219"/>
<circle cx="720" cy="465" r="71" fill="#94D2BD"/>
<path d="M755.357 420H684.643C679.319 420 675 424.319 675 429.643V500.357C675 505.681 679.319 510 684.643 510H755.357C760.681 510 765 505.681 765 500.357V429.643C765 424.319 760.681 420 755.357 420ZM723.978 490.192C723.978 498.951 718.835 502.949 711.342 502.949C704.571 502.949 700.654 499.453 698.645 495.214L705.536 491.056C706.862 493.406 708.067 495.395 710.98 495.395C713.752 495.395 715.52 494.31 715.52 490.071V461.324H723.978V490.192ZM743.987 502.949C736.132 502.949 731.049 499.212 728.578 494.31L735.469 490.333C737.277 493.286 739.647 495.475 743.806 495.475C747.301 495.475 749.551 493.728 749.551 491.297C749.551 488.404 747.261 487.379 743.384 485.672L741.275 484.768C735.167 482.176 731.129 478.902 731.129 472.011C731.129 465.663 735.971 460.842 743.504 460.842C748.888 460.842 752.746 462.71 755.518 467.612L748.929 471.83C747.482 469.239 745.915 468.214 743.484 468.214C741.013 468.214 739.446 469.781 739.446 471.83C739.446 474.362 741.013 475.386 744.65 476.973L746.759 477.877C753.951 480.951 757.989 484.105 757.989 491.176C757.989 498.77 752.002 502.949 743.987 502.949Z" fill="#001219"/>
<circle cx="558" cy="456" r="71" fill="#94D2BD"/>
<path d="M520 411L526.998 490.513L558.5 501L590.002 490.513L597 411H520ZM582.783 427.071L581.821 436.574L558.701 446.478L558.64 446.498H580.998L578.432 475.949L558.741 481.714L538.929 475.848L537.646 461.002H547.451L548.093 468.696L558.64 471.368L569.609 468.275L570.351 455.9L537.004 455.799V455.779L536.964 455.799L536.242 446.498L558.721 437.116L560.024 436.574H535.38L534.217 427.071H582.783Z" fill="#001219"/>
<circle cx="395" cy="456" r="71" fill="#94D2BD"/>
<path d="M357 411L363.998 490.513L395.4 501L427.002 490.513L434 411H357ZM418.801 436.694H381.945L382.767 446.618H417.978L415.251 476.431L395.62 481.855V481.915H395.4L375.608 476.431L374.405 461.203H383.97L384.672 468.857L395.4 471.77L406.168 468.857L407.371 456.362H373.904L371.337 427.112H419.683L418.801 436.694Z" fill="#001219"/>
<line x1="162" y1="289" x2="1278" y2="289" stroke="#FE8163" stroke-width="10"/>
<line x1="611" y1="179" x2="829" y2="179" stroke="#0A9369" stroke-width="10"/>
<path d="M635.031 129.578C627.312 127.359 621.688 124.641 618.156 121.422C614.656 118.172 612.906 114.172 612.906 109.422C612.906 104.047 615.047 99.6094 619.328 96.1094C623.641 92.5781 629.234 90.8125 636.109 90.8125C640.797 90.8125 644.969 91.7188 648.625 93.5312C652.312 95.3438 655.156 97.8438 657.156 101.031C659.188 104.219 660.203 107.703 660.203 111.484H651.156C651.156 107.359 649.844 104.125 647.219 101.781C644.594 99.4062 640.891 98.2188 636.109 98.2188C631.672 98.2188 628.203 99.2031 625.703 101.172C623.234 103.109 622 105.812 622 109.281C622 112.062 623.172 114.422 625.516 116.359C627.891 118.266 631.906 120.016 637.562 121.609C643.25 123.203 647.688 124.969 650.875 126.906C654.094 128.812 656.469 131.047 658 133.609C659.562 136.172 660.344 139.188 660.344 142.656C660.344 148.188 658.188 152.625 653.875 155.969C649.562 159.281 643.797 160.938 636.578 160.938C631.891 160.938 627.516 160.047 623.453 158.266C619.391 156.453 616.25 153.984 614.031 150.859C611.844 147.734 610.75 144.188 610.75 140.219H619.797C619.797 144.344 621.312 147.609 624.344 150.016C627.406 152.391 631.484 153.578 636.578 153.578C641.328 153.578 644.969 152.609 647.5 150.672C650.031 148.734 651.297 146.094 651.297 142.75C651.297 139.406 650.125 136.828 647.781 135.016C645.438 133.172 641.188 131.359 635.031 129.578ZM684.719 136.516L679.281 142.188V160H670.609V88H679.281V131.547L683.922 125.969L699.719 109.281H710.266L690.531 130.469L712.562 160H702.391L684.719 136.516ZM728.641 160H719.969V109.281H728.641V160ZM719.266 95.8281C719.266 94.4219 719.688 93.2344 720.531 92.2656C721.406 91.2969 722.688 90.8125 724.375 90.8125C726.062 90.8125 727.344 91.2969 728.219 92.2656C729.094 93.2344 729.531 94.4219 729.531 95.8281C729.531 97.2344 729.094 98.4062 728.219 99.3438C727.344 100.281 726.062 100.75 724.375 100.75C722.688 100.75 721.406 100.281 720.531 99.3438C719.688 98.4062 719.266 97.2344 719.266 95.8281ZM751.984 160H743.312V88H751.984V160ZM775.328 160H766.656V88H775.328V160ZM818.781 146.547C818.781 144.203 817.891 142.391 816.109 141.109C814.359 139.797 811.281 138.672 806.875 137.734C802.5 136.797 799.016 135.672 796.422 134.359C793.859 133.047 791.953 131.484 790.703 129.672C789.484 127.859 788.875 125.703 788.875 123.203C788.875 119.047 790.625 115.531 794.125 112.656C797.656 109.781 802.156 108.344 807.625 108.344C813.375 108.344 818.031 109.828 821.594 112.797C825.188 115.766 826.984 119.562 826.984 124.188H818.266C818.266 121.812 817.25 119.766 815.219 118.047C813.219 116.328 810.688 115.469 807.625 115.469C804.469 115.469 802 116.156 800.219 117.531C798.438 118.906 797.547 120.703 797.547 122.922C797.547 125.016 798.375 126.594 800.031 127.656C801.688 128.719 804.672 129.734 808.984 130.703C813.328 131.672 816.844 132.828 819.531 134.172C822.219 135.516 824.203 137.141 825.484 139.047C826.797 140.922 827.453 143.219 827.453 145.938C827.453 150.469 825.641 154.109 822.016 156.859C818.391 159.578 813.688 160.938 807.906 160.938C803.844 160.938 800.25 160.219 797.125 158.781C794 157.344 791.547 155.344 789.766 152.781C788.016 150.188 787.141 147.391 787.141 144.391H795.812C795.969 147.297 797.125 149.609 799.281 151.328C801.469 153.016 804.344 153.859 807.906 153.859C811.188 153.859 813.812 153.203 815.781 151.891C817.781 150.547 818.781 148.766 818.781 146.547Z" fill="white"/>
<defs>
<linearGradient id="paint0_linear" x1="-9" y1="1024" x2="1440" y2="0.000115801" gradientUnits="userSpaceOnUse">
<stop offset="0.0208333" stop-color="#001219"/>
<stop offset="1" stop-color="#005F73"/>
</linearGradient>
</defs>
</svg>
