<svg width="142" height="142" viewBox="0 0 142 142" fill="none" xmlns="http://www.w3.org/2000/svg">
<circle cx="71" cy="71" r="71" fill="#94D2BD"/>
<path d="M106.357 26H35.6429C30.3192 26 26 30.3192 26 35.6429V106.357C26 111.681 30.3192 116 35.6429 116H106.357C111.681 116 116 111.681 116 106.357V35.6429C116 30.3192 111.681 26 106.357 26ZM74.9777 96.192C74.9777 104.951 69.8348 108.949 62.3415 108.949C55.5714 108.949 51.654 105.453 49.6451 101.214L56.5357 97.0558C57.8616 99.4062 59.067 101.395 61.9799 101.395C64.7522 101.395 66.5201 100.31 66.5201 96.0714V67.3237H74.9777V96.192ZM94.9866 108.949C87.1317 108.949 82.0491 105.212 79.5781 100.31L86.4687 96.3326C88.2768 99.2857 90.6473 101.475 94.8058 101.475C98.3013 101.475 100.551 99.7277 100.551 97.2969C100.551 94.404 98.2612 93.3795 94.3839 91.6719L92.2746 90.7679C86.1674 88.1763 82.1295 84.9018 82.1295 78.0112C82.1295 71.6629 86.971 66.8415 94.5045 66.8415C99.8884 66.8415 103.746 68.7098 106.518 73.6116L99.9286 77.8304C98.4821 75.2388 96.9152 74.2143 94.4844 74.2143C92.0134 74.2143 90.4464 75.7812 90.4464 77.8304C90.4464 80.3616 92.0134 81.3862 95.6496 82.9732L97.7589 83.8772C104.951 86.9509 108.989 90.1049 108.989 97.1763C108.989 104.77 103.002 108.949 94.9866 108.949Z" fill="#001219"/>
</svg>
