<svg width="75" height="75" viewBox="0 0 142 142" fill="none" xmlns="http://www.w3.org/2000/svg">
<circle cx="71" cy="71" r="71" fill="#94D2BD"/>
<path d="M71.4823 116C70.2977 116 69.0953 115.679 68.0522 115.071L57.1428 108.553C55.5161 107.624 56.3118 107.303 56.8422 107.124C59.017 106.356 59.459 106.195 61.7753 104.856C62.0228 104.713 62.3411 104.767 62.5886 104.927L70.9696 109.946C71.2701 110.124 71.6945 110.124 71.9774 109.946L104.635 90.9082C104.935 90.7296 105.13 90.3725 105.13 90.0153V51.9401C105.13 51.565 104.935 51.2257 104.617 51.0293L71.9774 32.0095C71.6768 31.8309 71.2701 31.8309 70.9696 32.0095L38.3476 51.0471C38.0293 51.2257 37.8348 51.5829 37.8348 51.9579V90.0153C37.8348 90.3725 38.0293 90.7296 38.3476 90.8904L47.2943 96.1052C52.1567 98.5518 55.1271 95.6766 55.1271 92.7655V55.1904C55.1271 54.6546 55.5515 54.2439 56.0819 54.2439H60.2193C60.7321 54.2439 61.1741 54.6546 61.1741 55.1904V92.7834C61.1741 99.3198 57.6379 103.07 51.5025 103.07C49.6106 103.07 48.1253 103.07 43.9879 100.999L35.4302 96.0159C33.3084 94.7836 32 92.4798 32 89.9974V51.9401C32 49.4755 33.3084 47.1539 35.4302 45.9216L68.0522 26.884C70.1209 25.7053 72.8615 25.7053 74.9125 26.884L107.57 45.9395C109.692 47.1717 111 49.4755 111 51.9579V90.0153C111 92.4798 109.692 94.7836 107.57 96.0337L74.9125 115.071C73.8693 115.679 72.6847 116 71.4823 116ZM97.8451 78.4784C97.8451 71.3527 93.0712 69.4597 83.0459 68.1202C72.8968 66.763 71.8713 66.0665 71.8713 63.6734C71.8713 61.691 72.7377 59.0479 80.2522 59.0479C86.9534 59.0479 89.4288 60.5123 90.4543 65.0842C90.5427 65.5128 90.9317 65.8343 91.3738 65.8343H95.6173C95.8825 65.8343 96.13 65.7271 96.3068 65.5307C96.4837 65.3343 96.5721 65.0664 96.5544 64.7985C95.9002 56.9227 90.7196 53.2616 80.2522 53.2616C70.9342 53.2616 65.3823 57.2263 65.3823 63.8877C65.3823 71.1027 70.9165 73.1029 79.8456 73.9958C90.5427 75.0495 91.3738 76.639 91.3738 78.7642C91.3738 82.4431 88.4387 84.0147 81.5607 84.0147C72.9145 84.0147 71.0226 81.818 70.3861 77.4783C70.3154 77.014 69.9264 76.6747 69.449 76.6747H65.2231C64.6927 76.6747 64.286 77.1033 64.286 77.6212C64.286 83.1753 67.2742 89.801 81.5783 89.801C91.9042 89.7831 97.8451 85.6577 97.8451 78.4784Z" fill="#001219"/>
</svg>
