<svg width="75" height="75" viewBox="0 0 142 142" fill="none" xmlns="http://www.w3.org/2000/svg">
<circle cx="71" cy="71" r="71" fill="#94D2BD"/>
<path d="M104.13 55.1656C103.044 54.804 101.957 54.4625 100.871 54.1411C101.052 53.3978 101.213 52.6545 101.374 51.9113C103.848 39.9387 102.219 30.3165 96.727 27.1425C91.4361 24.1092 82.8059 27.263 74.075 34.8564C73.21 35.5997 72.365 36.3831 71.5603 37.1665C71.0172 36.6442 70.4539 36.1219 69.8906 35.6197C60.7373 27.5041 51.5639 24.0891 46.0719 27.2831C40.8012 30.3365 39.232 39.3963 41.4449 50.7261C41.6662 51.851 41.9076 52.9559 42.1893 54.0808C40.9018 54.4424 39.6344 54.8442 38.4475 55.266C27.7049 58.9823 20 64.8481 20 70.9147C20 77.1823 28.2078 83.4699 39.3729 87.2866C40.2781 87.5879 41.1834 87.8893 42.1088 88.1504C41.807 89.3557 41.5455 90.5409 41.3041 91.7663C39.1918 102.915 40.8414 111.754 46.1121 114.787C51.5438 117.921 60.677 114.707 69.5687 106.933C70.2729 106.31 70.977 105.667 71.6811 104.984C72.5662 105.848 73.4916 106.672 74.417 107.475C83.0271 114.868 91.5367 117.861 96.7873 114.828C102.219 111.694 103.989 102.192 101.696 90.6213C101.515 89.7374 101.314 88.8334 101.092 87.9094C101.736 87.7286 102.36 87.5277 102.983 87.3268C114.591 83.4899 123 77.2827 123 70.9147C123 64.828 115.074 58.9221 104.13 55.1656ZM76.9115 38.1107C84.3951 31.6021 91.3758 29.0509 94.5543 30.8789C97.9541 32.8275 99.2617 40.7021 97.1293 51.0475C96.9885 51.7305 96.8477 52.3934 96.6666 53.0563C92.2006 52.0519 87.6742 51.3287 83.1277 50.927C80.5125 47.1906 77.6559 43.6149 74.5578 40.2601C75.3424 39.5169 76.1068 38.8138 76.9115 38.1107ZM53.6359 81.3405C54.6619 83.0882 55.708 84.8359 56.8145 86.5434C53.6762 86.2019 50.558 85.6997 47.4801 85.0367C48.3652 82.144 49.4717 79.1509 50.7592 76.0975C51.6846 77.8652 52.6301 79.6129 53.6359 81.3405ZM47.5404 57.1744C50.4373 56.5316 53.5152 56.0093 56.7139 55.6075C55.6477 57.2748 54.6016 58.9823 53.6158 60.7099C52.6301 62.4174 51.6645 64.1651 50.7592 65.9329C49.4918 62.9397 48.4256 60.0068 47.5404 57.1744ZM53.0525 71.0152C54.3803 68.243 55.8287 65.5311 57.3576 62.8594C58.8865 60.1876 60.5361 57.5962 62.2662 55.045C65.2838 54.8241 68.3617 54.7035 71.5 54.7035C74.6383 54.7035 77.7363 54.8241 80.7338 55.045C82.4437 57.5762 84.0732 60.1675 85.6223 62.8192C87.1713 65.4708 88.6197 68.1827 89.9877 70.9348C88.6398 73.707 87.1914 76.439 85.6424 79.1308C84.1135 81.8025 82.484 84.3939 80.774 86.9652C77.7766 87.1862 74.6584 87.2866 71.5 87.2866C68.3416 87.2866 65.2838 87.1862 62.3266 87.0054C60.5764 84.4542 58.9268 81.8427 57.3777 79.171C55.8287 76.4993 54.4004 73.7873 53.0525 71.0152ZM89.3842 81.3003C90.4102 79.5326 91.3758 77.7447 92.3213 75.9368C93.6088 78.8496 94.7354 81.8025 95.7211 84.8359C92.6029 85.5389 89.4445 86.0813 86.266 86.4429C87.3523 84.7555 88.3783 83.0279 89.3842 81.3003ZM92.2811 65.9329C91.3355 64.1651 90.3699 62.3973 89.3641 60.6697C88.3783 58.9622 87.3523 57.2748 86.2861 55.6075C89.525 56.0093 92.623 56.5517 95.5199 57.2146C94.5945 60.1876 93.5082 63.0803 92.2811 65.9329ZM71.5402 43.3336C73.6525 45.6237 75.6441 48.0343 77.4949 50.5252C73.5117 50.3444 69.5084 50.3444 65.5252 50.5252C67.4967 47.9338 69.5285 45.5232 71.5402 43.3336ZM48.2043 31.0195C51.584 29.0509 59.0877 31.8632 66.9938 38.8539C67.4967 39.2959 67.9996 39.778 68.5227 40.2601C65.4045 43.6149 62.5277 47.1906 59.8924 50.927C55.3459 51.3287 50.8396 52.0318 46.3736 53.0161C46.1121 51.9916 45.8908 50.947 45.6695 49.9025C43.7785 40.1798 45.0258 32.8476 48.2043 31.0195ZM43.2756 83.9721C42.4307 83.731 41.6059 83.4699 40.7811 83.1886C36.4961 81.8427 31.6277 79.7134 28.1072 76.9211C26.0754 75.5149 24.7074 73.3454 24.3252 70.9147C24.3252 67.2386 30.6822 62.5379 39.8557 59.3439C41.0023 58.9422 42.1691 58.5806 43.3359 58.2391C44.7039 62.5982 46.3535 66.877 48.2646 71.0152C46.3334 75.2136 44.6637 79.5527 43.2756 83.9721ZM66.7322 103.659C63.4129 106.692 59.5705 109.102 55.3861 110.75C53.1531 111.814 50.5781 111.915 48.2848 111.011C45.0861 109.163 43.7584 102.072 45.5689 92.5296C45.7902 91.4047 46.0316 90.2798 46.3133 89.1749C50.8195 90.1391 55.366 90.8021 59.9729 91.1436C62.6283 94.9001 65.5453 98.4958 68.6635 101.871C68.0197 102.493 67.376 103.096 66.7322 103.659ZM71.6609 98.7771C69.609 96.5674 67.557 94.1166 65.5654 91.4851C67.4967 91.5654 69.4883 91.6056 71.5 91.6056C73.5721 91.6056 75.6039 91.5654 77.6156 91.465C75.7648 94.0162 73.7732 96.4468 71.6609 98.7771ZM97.9541 104.804C97.773 107.254 96.566 109.544 94.6348 111.091C91.4361 112.939 84.6164 110.529 77.2535 104.221C76.4086 103.498 75.5637 102.714 74.6986 101.911C77.7766 98.5159 80.6131 94.9201 83.1881 91.1436C87.7949 90.7619 92.3816 90.0588 96.908 89.0343C97.1092 89.8579 97.2902 90.6815 97.4512 91.4851C98.4369 95.8241 98.5979 100.344 97.9541 104.804ZM101.615 83.2087C101.052 83.3895 100.489 83.5703 99.9055 83.731C98.4973 79.3518 96.7672 75.073 94.7756 70.9147C96.7068 66.8167 98.3363 62.5982 99.7043 58.2792C100.75 58.5806 101.756 58.902 102.722 59.2234C112.096 62.4375 118.675 67.2185 118.675 70.8745C118.675 74.8118 111.654 79.8942 101.615 83.2087ZM71.5 80.1955C76.5896 80.1955 80.7137 76.0774 80.7137 70.9951C80.7137 65.9128 76.5896 61.7947 71.5 61.7947C66.4104 61.7947 62.2863 65.9128 62.2863 70.9951C62.2863 76.0774 66.4104 80.1955 71.5 80.1955Z" fill="#001219"/>
</svg>
