<svg width="75" height="75" viewBox="0 0 142 142" fill="none" xmlns="http://www.w3.org/2000/svg">
<circle cx="71" cy="71" r="71" fill="#94D2BD"/>
<path d="M67.595 94.0412C67.5387 94.1536 67.4825 94.2436 67.595 94.0412V94.0412ZM114.307 77.73C110.536 77.7288 106.815 78.5948 103.432 80.261C102.326 78.03 101.182 76.0801 100.995 74.6177C100.77 72.9116 100.526 71.8992 100.788 69.8744C101.051 67.8495 102.232 64.981 102.214 64.7748C102.195 64.5686 101.951 63.5374 99.5322 63.5186C97.1135 63.4999 95.0322 63.9874 94.7903 64.6248C94.3631 65.7897 94.0308 66.9873 93.7965 68.2058C93.3653 70.3993 88.9609 78.2362 86.4671 82.3234C85.6421 80.7297 84.9483 79.3236 84.7983 78.1987C84.5733 76.4926 84.3296 75.4802 84.5921 73.4553C84.8546 71.4305 86.0358 68.562 86.0171 68.3558C85.9983 68.1495 85.7546 67.1184 83.3377 67.0996C80.9208 67.0809 78.8376 67.5683 78.5939 68.2058C78.3501 68.8432 78.0876 70.3431 77.6001 71.7867C77.1126 73.2304 71.2457 86.2793 69.71 89.6728C68.9225 91.3976 68.2475 92.785 67.76 93.7224C67.685 93.8724 67.6287 93.9662 67.5912 94.0412C67.6475 93.9474 67.685 93.8537 67.685 93.8912C67.2725 94.6973 67.0287 95.1473 67.0287 95.1473V95.1661C66.71 95.766 66.3537 96.3097 66.185 96.3097C66.0725 96.3097 65.8287 94.7348 66.2412 92.5788C67.1225 88.0416 69.2038 80.9922 69.185 80.7485C69.1663 80.6172 69.5788 79.3986 67.8162 78.7424C66.11 78.1237 65.4912 79.1549 65.3412 79.1549C65.1912 79.1549 65.0787 79.5298 65.0787 79.5298C65.0787 79.5298 66.9725 71.5805 61.443 71.5805C57.993 71.5805 53.1929 75.3677 50.8342 78.7986C49.3529 79.6048 46.1466 81.3484 42.7716 83.2045C41.4778 83.917 40.1465 84.6482 38.8903 85.3419C38.7965 85.2481 38.7215 85.1544 38.6278 85.0606C31.9171 77.8987 19.5269 72.8366 20.0519 63.2187C20.2394 59.7127 21.4582 50.5072 43.8778 39.3331C62.2531 30.1839 76.9438 32.6962 79.4733 38.2832C83.1108 46.2513 71.6188 61.0813 52.5367 63.2187C45.2635 64.0249 41.4403 61.2126 40.484 60.1627C39.4903 59.0565 39.3403 59.0003 38.9653 59.2065C38.3465 59.544 38.7403 60.5189 38.9653 61.1001C39.5278 62.5812 41.8716 65.206 45.8635 66.5184C49.3698 67.6621 57.8974 68.2995 68.2081 64.3061C79.792 59.8439 88.809 47.4137 86.1652 37.0083C83.4727 26.4342 65.9375 22.9657 49.3567 28.8527C39.4772 32.3587 28.7933 37.8707 21.1076 45.0514C11.9781 53.6007 10.5175 61.0438 11.1175 64.1561C13.2531 75.1989 28.4745 82.3984 34.5665 87.7229C34.2665 87.8917 33.9852 88.0416 33.7227 88.1916C30.6683 89.7103 19.0638 95.7848 16.1594 102.197C12.8781 109.471 16.7031 114.683 19.2138 115.396C27.0495 117.57 35.0727 113.652 39.3834 107.221C43.6941 100.791 43.171 92.3913 41.1834 88.5666C41.1647 88.5104 41.1272 88.4729 41.1084 88.4166C41.8959 87.9479 42.7022 87.4792 43.5085 87.0105C45.0629 86.0918 46.5816 85.2481 47.9129 84.5169C47.1629 86.5418 46.6191 88.9791 46.3379 92.5038C46.0004 96.6284 47.7066 101.972 49.9192 104.072C50.8942 104.99 52.0736 105.009 52.8048 105.009C55.3923 105.009 56.5549 102.872 57.8467 100.322C59.4405 97.2096 60.8468 93.5912 60.8468 93.5912C60.8468 93.5912 59.0843 103.378 63.9031 103.378C65.6637 103.378 67.4262 101.109 68.2156 99.9469V99.9657C68.2156 99.9657 68.2531 99.8907 68.3469 99.7407C68.5344 99.4595 68.6281 99.2907 68.6281 99.2907V99.2345C69.3406 98.0158 70.8969 95.2223 73.2388 90.6102C76.2763 84.6482 79.1807 77.205 79.1807 77.205C79.4614 78.8412 79.8497 80.4571 80.3433 82.0421C80.8683 83.8232 81.9745 85.7731 82.8558 87.6667C82.1433 88.6416 81.712 89.204 81.712 89.204C81.7134 89.2184 81.7201 89.2318 81.7308 89.2416C81.1683 89.9915 80.5308 90.7977 79.8745 91.5851C77.4763 94.4349 74.6244 97.6971 74.2494 98.6345C73.7994 99.7407 73.9119 100.566 74.7744 101.203C75.412 101.691 76.537 101.766 77.7164 101.672C79.8726 101.522 81.3914 100.997 82.1227 100.659C83.4708 100.176 84.7449 99.5071 85.9083 98.672C88.2521 96.9472 89.6771 94.4724 89.5459 91.2101C89.4709 89.4103 88.8896 87.6104 88.1771 85.9231C88.3834 85.6231 88.6084 85.3044 88.8146 84.9856C92.5253 79.5673 95.3941 73.6203 95.3941 73.6203C95.6747 75.2565 96.0631 76.8724 96.5566 78.4574C97.0066 79.9761 97.886 81.6447 98.6922 83.2758C95.2066 86.1068 93.0503 89.3878 92.3003 91.5439C90.9128 95.5373 92.0003 97.3371 94.044 97.7496C94.9628 97.9371 96.2753 97.5059 97.2503 97.0934C98.6984 96.6111 100.064 95.9093 101.299 95.0123C103.642 93.2875 105.909 90.8689 105.759 87.5879C105.703 86.1068 105.29 84.6257 104.747 83.2008C107.69 81.9634 111.514 81.2884 116.389 81.8509C126.829 83.0695 128.873 89.594 128.479 92.3125C128.085 95.0311 125.891 96.5497 125.16 96.9997C124.429 97.4496 124.204 97.6184 124.26 97.9558C124.354 98.4433 124.691 98.4246 125.31 98.3121C126.173 98.1621 130.783 96.0997 130.989 91.0564C131.289 84.6819 125.16 77.67 114.302 77.7262L114.307 77.73ZM33.8352 104.859C30.3871 108.627 25.5495 110.052 23.4701 108.852C21.2388 107.555 22.1201 102.009 26.3745 97.9933C28.962 95.556 32.2977 93.3062 34.5102 91.9188C35.0165 91.6189 35.7477 91.1689 36.6478 90.6252C36.7978 90.5314 36.8728 90.4939 36.8728 90.4939C37.0415 90.3815 37.229 90.2877 37.4165 90.1752C38.9709 95.8748 37.4728 100.899 33.8352 104.855V104.859ZM59.028 87.7229C57.828 90.6664 55.2986 98.1658 53.7611 97.7721C52.4486 97.4346 51.6423 91.7163 53.4986 86.0918C54.4361 83.2608 56.4236 79.8861 57.6049 78.5737C59.4968 76.4551 61.578 75.7801 62.0655 76.6238C62.7218 77.73 59.778 85.8856 59.028 87.7229ZM79.8408 97.6596C79.3345 97.9221 78.8657 98.0908 78.6407 97.9596C78.472 97.8658 78.847 97.5096 78.847 97.5096C78.847 97.5096 81.4533 94.7161 82.4845 93.4412C83.0845 92.6913 83.7783 91.8101 84.5264 90.8352C84.5264 90.9289 84.5452 91.0227 84.5452 91.1351C84.5208 94.4911 81.2976 96.7597 79.8351 97.6596H79.8408ZM95.8872 94.0037C95.5122 93.7412 95.5684 92.86 96.8247 90.1227C97.3122 89.0541 98.4353 87.2542 100.387 85.5293C100.608 86.1823 100.728 86.8651 100.743 87.5542C100.725 91.7726 97.706 93.3475 95.8891 94.0037H95.8872Z" fill="#001219"/>
</svg>
