<svg width="54" height="48" viewBox="0 0 54 48" fill="none" xmlns="http://www.w3.org/2000/svg">
<path d="M15 42C12.6 42 10.2 39.9 9 39C3 34.8 1.2 33.3 0 32.4V45C0 46.6566 1.34344 48 3 48H27C28.6566 48 30 46.6566 30 45V32.4C28.8 33.3 27 34.8 21 39C19.8 39.9 17.4 42 15 42ZM27 24H3C1.34344 24 0 25.3434 0 27V28.5C2.4 30.3 2.1 30.3 10.8 36.6C11.7 37.2 13.5 39 15 39C16.5 39 18.3 37.2 19.2 36.9C27.9 30.6 27.6 30.6 30 28.8V27C30 25.3434 28.6566 24 27 24ZM51 15H21C19.3434 15 18 16.3434 18 18V21H27C30.1134 21 32.6803 23.3831 32.9728 26.4206L33 26.4V39H51C52.6566 39 54 37.6566 54 36V18C54 16.3434 52.6566 15 51 15ZM48 27H42V21H48V27ZM15 18C15 14.6916 17.6916 12 21 12H42V3C42 1.34344 40.6566 0 39 0H9C7.34344 0 6 1.34344 6 3V21H15V18Z" fill="#FE8163"/>
</svg>
