<svg width="50" height="50" viewBox="0 0 25 25" fill="none" xmlns="http://www.w3.org/2000/svg">
<path d="M8.75757 19.9454C8.75757 20.043 8.64526 20.1212 8.50366 20.1212C8.34253 20.1358 8.23022 20.0577 8.23022 19.9454C8.23022 19.8477 8.34253 19.7696 8.48413 19.7696C8.63062 19.7549 8.75757 19.8331 8.75757 19.9454ZM7.23901 19.7256C7.20483 19.8233 7.30249 19.9356 7.44897 19.9649C7.57593 20.0137 7.72241 19.9649 7.75171 19.8672C7.78101 19.7696 7.68823 19.6573 7.54175 19.6133C7.41479 19.5792 7.27319 19.628 7.23901 19.7256ZM9.39722 19.6426C9.25562 19.6768 9.15796 19.7696 9.17261 19.8819C9.18726 19.9796 9.31421 20.043 9.46069 20.0089C9.6023 19.9747 9.69995 19.8819 9.6853 19.7842C9.67065 19.6915 9.53882 19.628 9.39722 19.6426ZM12.6101 0.931702C5.83765 0.931702 0.656982 6.0733 0.656982 12.8458C0.656982 18.2608 4.06519 22.8946 8.93335 24.5255C9.55835 24.6378 9.77808 24.252 9.77808 23.9346C9.77808 23.6319 9.76343 21.962 9.76343 20.9366C9.76343 20.9366 6.34546 21.669 5.62769 19.4815C5.62769 19.4815 5.07104 18.0606 4.27026 17.6944C4.27026 17.6944 3.1521 16.9278 4.34839 16.9424C4.34839 16.9424 5.56421 17.0401 6.23315 18.2022C7.30249 20.087 9.09448 19.545 9.79272 19.2227C9.90503 18.4415 10.2224 17.8995 10.574 17.5772C7.84448 17.2745 5.09058 16.879 5.09058 12.1817C5.09058 10.8389 5.46167 10.1651 6.24292 9.30573C6.11597 8.98834 5.70093 7.67975 6.36987 5.9903C7.39038 5.67291 9.73901 7.30866 9.73901 7.30866C10.7156 7.03522 11.7654 6.89362 12.8054 6.89362C13.8455 6.89362 14.8953 7.03522 15.8718 7.30866C15.8718 7.30866 18.2205 5.66803 19.241 5.9903C19.9099 7.68463 19.4949 8.98834 19.3679 9.30573C20.1492 10.17 20.6277 10.8438 20.6277 12.1817C20.6277 16.8936 17.7517 17.2696 15.0222 17.5772C15.4714 17.963 15.8523 18.6954 15.8523 19.8428C15.8523 21.4883 15.8376 23.5245 15.8376 23.9249C15.8376 24.2422 16.0623 24.628 16.6824 24.5157C21.5652 22.8946 24.8757 18.2608 24.8757 12.8458C24.8757 6.0733 19.3826 0.931702 12.6101 0.931702ZM5.40308 17.7725C5.3396 17.8213 5.35425 17.9337 5.43726 18.0264C5.51538 18.1046 5.62769 18.1387 5.69116 18.0753C5.75464 18.0264 5.73999 17.9141 5.65698 17.8213C5.57886 17.7432 5.46655 17.709 5.40308 17.7725ZM4.87573 17.377C4.84155 17.4405 4.89038 17.5186 4.98804 17.5674C5.06616 17.6163 5.16382 17.6016 5.198 17.5333C5.23218 17.4698 5.18335 17.3917 5.08569 17.3428C4.98804 17.3135 4.90991 17.3282 4.87573 17.377ZM6.45776 19.1153C6.37964 19.1788 6.40894 19.3253 6.52124 19.418C6.63354 19.5303 6.77515 19.545 6.83862 19.4669C6.9021 19.4034 6.8728 19.2569 6.77515 19.1641C6.66772 19.0518 6.52124 19.0372 6.45776 19.1153ZM5.90112 18.3975C5.823 18.4464 5.823 18.5733 5.90112 18.6856C5.97925 18.7979 6.11108 18.8467 6.17456 18.7979C6.25269 18.7344 6.25269 18.6075 6.17456 18.4952C6.1062 18.3829 5.97925 18.334 5.90112 18.3975Z" fill="#FE8163"/>
</svg>
