<svg width="50" height="50" viewBox="0 0 23 23" fill="none" xmlns="http://www.w3.org/2000/svg">
<path d="M5.72534 22.4161H1.19019V7.81158H5.72534V22.4161ZM3.45532 5.8194C2.00513 5.8194 0.828857 4.61822 0.828857 3.16803C0.828857 2.47145 1.10557 1.8034 1.59813 1.31084C2.09069 0.818281 2.75874 0.541565 3.45532 0.541565C4.1519 0.541565 4.81996 0.818281 5.31251 1.31084C5.80507 1.8034 6.08179 2.47145 6.08179 3.16803C6.08179 4.61822 4.90503 5.8194 3.45532 5.8194ZM22.699 22.4161H18.1736V15.3067C18.1736 13.6124 18.1394 11.4395 15.8157 11.4395C13.4578 11.4395 13.0964 13.2803 13.0964 15.1846V22.4161H8.56616V7.81158H12.9158V9.80377H12.9792C13.5847 8.65631 15.0637 7.44537 17.2703 7.44537C21.8601 7.44537 22.7039 10.4678 22.7039 14.3936V22.4161H22.699Z" fill="#FE8163"/>
</svg>

