<svg width="50" height="50" viewBox="0 0 41 38" fill="none" xmlns="http://www.w3.org/2000/svg">
<path d="M1.46429 6.97959H39.5357C40.3445 6.97959 41 6.28522 41 5.42857V1.55102C41 0.694372 40.3445 0 39.5357 0H1.46429C0.655542 0 0 0.694372 0 1.55102V5.42857C0 6.28522 0.655542 6.97959 1.46429 6.97959ZM1.46429 22.4898H39.5357C40.3445 22.4898 41 21.7954 41 20.9388V17.0612C41 16.2046 40.3445 15.5102 39.5357 15.5102H1.46429C0.655542 15.5102 0 16.2046 0 17.0612V20.9388C0 21.7954 0.655542 22.4898 1.46429 22.4898ZM1.46429 38H39.5357C40.3445 38 41 37.3056 41 36.449V32.5714C41 31.7148 40.3445 31.0204 39.5357 31.0204H1.46429C0.655542 31.0204 0 31.7148 0 32.5714V36.449C0 37.3056 0.655542 38 1.46429 38Z" fill="#FE8163"/>
</svg>
